# File created by Blade
# Date/Time:  Fri Jan 16 17:45:47 2015
#---------------------------------------------------------
:version 1.10
:name HOM
:units
  mass 1.0
  length 1.000000
  angle deg
:documentation
     Acclaim Skeleton File
:root
   axis xyz
   order TX TY TZ RX RY RZ
   position 0.000000 0.000000 0.000000
   orientation 0 0 0
:bonedata
   begin
      id 1
      name Spine_dum
      direction 0.000000 1.000000 0.000000
      length 7.170412
      axis 0.0 0.0 0.0 xyz
   end
   begin
      id 2
      name LeftUpLeg_dum
      direction 1.000000 0.000000 0.000000
      length 4.318350
      axis 0.0 0.0 0.0 xyz
   end
   begin
      id 3
      name RightUpLeg_dum
      direction -1.000000 0.000000 0.000000
      length 4.318350
      axis 0.0 0.0 0.0 xyz
   end
   begin
      id 4
      name Spine
      direction 0.000000 1.000000 0.000000
      length 0.000000
      axis 0.0 0.0 0.0 xyz
      dof rx ry rz
   end
   begin
      id 5
      name Spine_dum1
      direction 0.000000 1.000000 0.000000
      length 14.276153
      axis 0.0 0.0 0.0 xyz
   end
   begin
      id 6
      name Spine_dum2
      direction 0.000000 1.000000 0.000000
      length 10.718243
      axis 0.0 0.0 0.0 xyz
   end
   begin
      id 7
      name Spine_dum3
      direction 0.000000 1.000000 0.000000
      length 10.718243
      axis 0.0 0.0 0.0 xyz
   end
   begin
      id 8
      name Head
      direction 0.000000 1.000000 0.000000
      length 4.527550
      axis 0.0 0.0 0.0 xyz
      dof rx ry rz
   end
   begin
      id 9
      name LeftShoulder
      direction 1.000000 0.000000 0.000000
      length 7.058872
      axis 0.0 0.0 -90.0 xyz
      dof rx ry rz
   end
   begin
      id 10
      name LeftArm
      direction 1.000000 0.000000 0.000000
      length 10.955525
      axis 0.0 0.0 -90.0 xyz
      dof rx ry rz
   end
   begin
      id 11
      name LeftForeArm
      direction 1.000000 0.000000 0.000000
      length 8.193716
      axis 0.0 0.0 -90.0 xyz
      dof ry rz rx
   end
   begin
      id 12
      name LeftHand
      direction 0.000000 0.000000 0.000000
      length 0.000000
      axis 0.0 0.0 -90.0 xyz
      dof rx ry rz
   end
   begin
      id 13
      name LeftHand_dum1
      direction 0.000000 0.000000 0.000000
      length 0.000000
      axis 0.0 0.0 -90.0 xyz
   end
   begin
      id 14
      name LeftHand_dum2
      direction 1.000000 0.000000 0.000000
      length 3.937000
      axis 0.0 0.0 -90.0 xyz
   end
   begin
      id 15
      name LeftHandThumb1
      direction 0.000000 0.000000 1.000000
      length 3.937000
      axis 0.0 0.0 -90.0 xyz
      dof rx rz ry
   end
   begin
      id 16
      name RightShoulder
      direction -1.000000 0.000000 0.000000
      length 7.058872
      axis 0.0 0.0 90.0 xyz
      dof rx ry rz
   end
   begin
      id 17
      name RightArm
      direction -1.000000 0.000000 0.000000
      length 10.955525
      axis 0.0 0.0 90.0 xyz
      dof rx ry rz
   end
   begin
      id 18
      name RightForeArm
      direction -1.000000 0.000000 0.000000
      length 8.193716
      axis 0.0 0.0 90.0 xyz
      dof ry rz rx
   end
   begin
      id 19
      name RightHand
      direction 0.000000 0.000000 0.000000
      length 0.000000
      axis 0.0 0.0 90.0 xyz
      dof rx ry rz
   end
   begin
      id 20
      name RightHand_dum1
      direction 0.000000 0.000000 0.000000
      length 0.000000
      axis 0.0 0.0 90.0 xyz
   end
   begin
      id 21
      name RightHand_dum2
      direction -1.000000 0.000000 0.000000
      length 3.937000
      axis 0.0 0.0 90.0 xyz
   end
   begin
      id 22
      name RightHandThumb1
      direction 0.000000 0.000000 1.000000
      length 3.937000
      axis 0.0 0.0 90.0 xyz
      dof rx rz ry
   end
   begin
      id 23
      name LeftUpLeg
      direction 0.000000 -1.000000 0.000000
      length 17.323638
      axis 0.0 0.0 0.0 xyz
      dof rx ry rz
   end
   begin
      id 24
      name LeftLeg
      direction 0.000000 -1.000000 0.000000
      length 16.270368
      axis 0.0 0.0 0.0 xyz
      dof rx ry rz
   end
   begin
      id 25
      name LeftFoot
      direction 0.000000 -0.258819 0.965926
      length 4.922846
      axis 15.0 0.0 0.0 xyz
      dof rx ry rz
   end
   begin
      id 26
      name LeftToeBase
      direction 0.000000 0.000000 1.000000
      length 2.952750
      axis 0.0 0.0 0.0 xyz
      dof rx ry rz
   end
   begin
      id 27
      name RightUpLeg
      direction 0.000000 -1.000000 0.000000
      length 17.323638
      axis 0.0 0.0 0.0 xyz
      dof rx ry rz
   end
   begin
      id 28
      name RightLeg
      direction 0.000000 -1.000000 0.000000
      length 16.270368
      axis 0.0 0.0 0.0 xyz
      dof rx ry rz
   end
   begin
      id 29
      name RightFoot
      direction 0.000000 -0.258819 0.965926
      length 4.922846
      axis 15.0 0.0 0.0 xyz
      dof rx ry rz
   end
   begin
      id 30
      name RightToeBase
      direction 0.000000 0.000000 1.000000
      length 2.952750
      axis 0.0 0.0 0.0 xyz
      dof rx ry rz
   end
:hierarchy
   begin
      root Spine_dum LeftUpLeg_dum RightUpLeg_dum
      Spine_dum Spine
      LeftUpLeg_dum LeftUpLeg
      RightUpLeg_dum RightUpLeg
      Spine Spine_dum1 Spine_dum2 Spine_dum3
      Spine_dum1 Head
      Spine_dum2 LeftShoulder
      Spine_dum3 RightShoulder
      LeftShoulder LeftArm
      LeftArm LeftForeArm
      LeftForeArm LeftHand
      LeftHand LeftHand_dum1 LeftHand_dum2
      LeftHand_dum1 LeftHandThumb1
      RightShoulder RightArm
      RightArm RightForeArm
      RightForeArm RightHand
      RightHand RightHand_dum1 RightHand_dum2
      RightHand_dum1 RightHandThumb1
      LeftUpLeg LeftLeg
      LeftLeg LeftFoot
      LeftFoot LeftToeBase
      RightUpLeg RightLeg
      RightLeg RightFoot
      RightFoot RightToeBase
   end

# File created by Blade
# Date/Time:  Fri Jan 16 17:45:28 2015
# Frame Rate: 120.000 fps
#------------------------------------------------------
:FULLY-SPECIFIED
:DEGREES
2084
root -5.275537 35.252687 -10.232758 -3.189544 -7.255137 -6.077253
Spine -0.292038 -0.408033 9.996589
Head 5.586678 4.452413 -9.589915
LeftShoulder -19.197730 14.774847 -17.523127
LeftArm 19.911653 2.000164 -73.313031
LeftForeArm 4.303474 -0.000000 12.067149
LeftHand 1.997867 -0.000000 -6.612833
LeftHandThumb1 -26.253704 0.000000 33.147579
RightShoulder -1.250945 2.707468 4.536325
RightArm -4.541594 56.198286 69.533149
RightForeArm 7.666268 0.000000 103.109586
RightHand 6.949525 0.000000 -21.854109
RightHandThumb1 -24.326973 -0.000000 -32.862282
LeftUpLeg 13.185412 15.922452 7.662956
LeftLeg -8.946044 -0.000000 0.000000
LeftFoot -15.552495 27.726723 -8.021196
LeftToeBase 22.963988 -0.000000 -0.000000
RightUpLeg 8.932207 -3.667416 4.005715
RightLeg -4.050734 -0.000000 0.000000
RightFoot -3.865043 -26.591900 3.604728
RightToeBase 13.696885 -0.000000 -0.000000
2085
root -5.275392 35.252451 -10.234745 -3.172099 -7.297008 -6.083738
Spine -0.295250 -0.355045 10.007902
Head 5.592081 4.436140 -9.546551
LeftShoulder -19.197112 14.779764 -17.521258
LeftArm 19.917391 2.027882 -73.347612
LeftForeArm 4.284425 -0.000000 12.070152
LeftHand 2.027595 -0.000000 -6.646226
LeftHandThumb1 -26.253704 0.000000 33.147579
RightShoulder -1.234570 2.671199 4.576794
RightArm -4.546988 55.978122 69.572135
RightForeArm 7.990838 -0.000000 103.301291
RightHand 6.963537 -0.000000 -21.822584
RightHandThumb1 -24.326973 -0.000000 -32.862282
LeftUpLeg 13.181265 15.946271 7.666585
LeftLeg -8.956653 -0.000000 0.000000
LeftFoot -15.548805 27.743662 -8.011844
LeftToeBase 22.961047 -0.000000 -0.000000
RightUpLeg 8.919439 -3.632373 4.015070
RightLeg -4.073644 -0.000000 0.000000
RightFoot -3.842340 -26.592423 3.626272
RightToeBase 13.646924 -0.000000 -0.000000
2086
root -5.275958 35.253203 -10.237358 -3.160195 -7.331748 -6.079261
Spine -0.292710 -0.310528 10.004222
Head 5.600558 4.424644 -9.504123
LeftShoulder -19.179052 14.754616 -17.509418
LeftArm 19.876962 2.072775 -73.362148
LeftForeArm 4.292407 -0.000000 12.105970
LeftHand 2.015325 -0.000000 -6.665573
LeftHandThumb1 -26.253704 0.000000 33.147579
RightShoulder -1.221342 2.665628 4.624806
RightArm -4.584228 55.648125 69.546134
RightForeArm 8.511843 -0.000000 103.510644
RightHand 6.932969 -0.000000 -21.887239
RightHandThumb1 -24.326973 -0.000000 -32.862282
LeftUpLeg 13.169583 15.958675 7.660134
LeftLeg -8.948257 -0.000000 0.000000
LeftFoot -15.557175 27.760270 -8.039179
LeftToeBase 22.964929 -0.000000 -0.000000
RightUpLeg 8.899898 -3.638061 4.011224
RightLeg -4.072049 -0.000000 0.000000
RightFoot -3.834706 -26.557244 3.590442
RightToeBase 13.698229 -0.000000 -0.000000
2087
root -5.276409 35.252334 -10.238199 -3.150715 -7.374147 -6.091843
Spine -0.285360 -0.273561 10.031791
Head 5.599280 4.403793 -9.482283
LeftShoulder -19.188901 14.763591 -17.513102
LeftArm 19.879824 2.114638 -73.389421
LeftForeArm 4.330305 -0.000000 12.133094
LeftHand 2.008553 -0.000000 -6.660242
LeftHandThumb1 -26.253704 0.000000 33.147579
RightShoulder -1.198675 2.619888 4.632951
RightArm -4.526617 55.335401 69.637510
RightForeArm 9.037222 -0.000000 103.754777
RightHand 7.043352 -0.000000 -21.796836
RightHandThumb1 -24.326973 -0.000000 -32.862282
LeftUpLeg 13.179265 16.003290 7.676572
LeftLeg -8.965549 -0.000000 0.000000
LeftFoot -15.549574 27.768158 -8.012002
LeftToeBase 22.968678 -0.000000 -0.000000
RightUpLeg 8.899171 -3.595648 4.026173
RightLeg -4.093540 -0.000000 0.000000
RightFoot -3.816370 -26.551491 3.621847
RightToeBase 13.642168 -0.000000 -0.000000
2088
root -5.276031 35.252406 -10.240186 -3.141355 -7.403020 -6.093269
Spine -0.277655 -0.254568 10.047181
Head 5.590032 4.392045 -9.469285
LeftShoulder -19.178625 14.753179 -17.507733
LeftArm 19.856049 2.141525 -73.413871
LeftForeArm 4.346503 0.000000 12.162765
LeftHand 2.014613 -0.000000 -6.680273
LeftHandThumb1 -26.253704 0.000000 33.147579
RightShoulder -1.176626 2.598019 4.642040
RightArm -4.589049 54.797731 69.575107
RightForeArm 9.380514 0.000000 104.012651
RightHand 7.139700 0.000000 -21.673830
RightHandThumb1 -24.326973 -0.000000 -32.862282
LeftUpLeg 13.175411 16.031584 7.676969
LeftLeg -8.968055 -0.000000 0.000000
LeftFoot -15.551121 27.764376 -8.014080
LeftToeBase 22.966341 -0.000000 -0.000000
RightUpLeg 8.876848 -3.632197 4.022847
RightLeg -4.080307 -0.000000 0.000000
RightFoot -3.803992 -26.509676 3.572476
RightToeBase 13.679456 -0.000000 -0.000000
2089
root -5.273564 35.252406 -10.250167 -3.065760 -7.480625 -6.065052
Spine -0.330909 -0.166496 10.029853
Head 5.583214 4.373307 -9.456713
LeftShoulder -19.174021 14.764439 -17.515833
LeftArm 19.863733 2.167696 -73.416085
LeftForeArm 4.381177 -0.000000 12.195591
LeftHand 2.004042 -0.000000 -6.675331
LeftHandThumb1 -26.253704 0.000000 33.147579
RightShoulder -1.177838 2.550513 4.655800
RightArm -4.453287 54.327120 69.693627
RightForeArm 9.663481 -0.000000 104.347191
RightHand 7.077375 -0.000000 -21.844086
RightHandThumb1 -24.326973 -0.000000 -32.862282
LeftUpLeg 13.081612 16.079158 7.622569
LeftLeg -8.938904 -0.000000 0.000000
LeftFoot -15.572556 27.800838 -8.053401
LeftToeBase 22.969837 -0.000000 -0.000000
RightUpLeg 8.759274 -3.541925 4.004158
RightLeg -4.041834 -0.000000 0.000000
RightFoot -3.810121 -26.517447 3.529351
RightToeBase 13.681257 -0.000000 -0.000000
2090
root -5.273109 35.251893 -10.252564 -3.053961 -7.510858 -6.070418
Spine -0.319993 -0.167777 10.062218
Head 5.558954 4.375984 -9.477814
LeftShoulder -19.174275 14.756916 -17.520798
LeftArm 19.843727 2.209344 -73.432934
LeftForeArm 4.367252 -0.000000 12.232324
LeftHand 2.026543 -0.000000 -6.655066
LeftHandThumb1 -26.253704 0.000000 33.147579
RightShoulder -1.169011 2.503363 4.625075
RightArm -4.268133 53.845774 69.908710
RightForeArm 9.794202 0.000000 104.739420
RightHand 7.040024 -0.000000 -21.631958
RightHandThumb1 -24.326973 -0.000000 -32.862282
LeftUpLeg 13.077957 16.113906 7.626245
LeftLeg -8.947905 -0.000000 0.000000
LeftFoot -15.564418 27.802482 -8.031110
LeftToeBase 22.965373 -0.000000 -0.000000
RightUpLeg 8.742386 -3.532317 4.008237
RightLeg -4.040682 -0.000000 0.000000
RightFoot -3.821861 -26.491243 3.544969
RightToeBase 13.734557 -0.000000 -0.000000
2091
root -5.273808 35.252344 -10.251079 -3.073215 -7.509542 -6.079132
Spine -0.288526 -0.203819 10.094266
Head 5.544429 4.382867 -9.497502
LeftShoulder -19.159113 14.753395 -17.521451
LeftArm 19.819901 2.219344 -73.456331
LeftForeArm 4.366328 -0.000000 12.265196
LeftHand 2.021765 -0.000000 -6.676807
LeftHandThumb1 -26.253704 0.000000 33.147579
RightShoulder -1.180729 2.471310 4.575434
RightArm -4.087937 53.247791 70.128991
RightForeArm 9.680015 -0.000000 105.165422
RightHand 7.025899 -0.000000 -21.430574
RightHandThumb1 -24.326973 -0.000000 -32.862282
LeftUpLeg 13.109267 16.100086 7.641896
LeftLeg -8.963849 -0.000000 0.000000
LeftFoot -15.548306 27.805267 -8.025963
LeftToeBase 22.947064 -0.000000 -0.000000
RightUpLeg 8.779699 -3.538233 4.015178
RightLeg -4.070940 -0.000000 0.000000
RightFoot -3.789078 -26.486900 3.563002
RightToeBase 13.637109 -0.000000 -0.000000
2092
root -5.275142 35.253163 -10.250190 -3.099052 -7.503747 -6.089753
Spine -0.241285 -0.269159 10.129497
Head 5.510464 4.400238 -9.531552
LeftShoulder -19.164740 14.749025 -17.534582
LeftArm 19.816769 2.259371 -73.457339
LeftForeArm 4.364507 -0.000000 12.290814
LeftHand 2.008990 -0.000000 -6.686246
LeftHandThumb1 -26.253704 0.000000 33.147579
RightShoulder -1.178490 2.440209 4.511606
RightArm -3.921797 52.520289 70.336245
RightForeArm 9.447497 -0.000000 105.631400
RightHand 6.912017 -0.000000 -21.252015
RightHandThumb1 -24.326973 -0.000000 -32.862282
LeftUpLeg 13.138341 16.086358 7.661813
LeftLeg -8.965969 -0.000000 0.000000
LeftFoot -15.547331 27.804208 -8.027256
LeftToeBase 22.972822 -0.000000 -0.000000
RightUpLeg 8.818663 -3.552434 4.024819
RightLeg -4.091599 -0.000000 0.000000
RightFoot -3.781854 -26.479256 3.574933
RightToeBase 13.666701 -0.000000 -0.000000
